<?xml version="1.0" standalone="no"?><!DOCTYPE svg PUBLIC "-//W3C//DTD SVG 1.1//EN" "http://www.w3.org/Graphics/SVG/1.1/DTD/svg11.dtd"><svg height="1024" node-id="1" sillyvg="true" template-height="1024" template-width="1101" version="1.1" viewBox="0 0 1101 1024" width="1101" xmlns="http://www.w3.org/2000/svg" xmlns:xlink="http://www.w3.org/1999/xlink"><defs node-id="33"></defs><path d="M 0.00 0.00 L 1100.60 0.00 L 1100.60 1024.00 L 0.00 1024.00 Z" fill="#ffffff" fill-rule="nonzero" node-id="35" stroke="none" target-height="1024" target-width="1100.6" target-x="0" target-y="0"></path><path d="M 363.10 206.20 L 369.20 201.30 L 381.70 192.40 L 388.30 188.50 L 397.30 183.80 L 406.50 179.70 L 416.00 176.00 L 425.70 172.80 L 435.50 170.00 L 445.50 167.60 L 465.70 163.70 L 491.10 160.30 L 506.20 158.90 L 523.00 157.90 L 556.60 157.00 L 573.50 157.10 L 590.30 157.70 L 607.10 158.80 L 623.90 160.50 L 640.50 162.70 L 657.10 165.50 L 669.50 168.00 L 681.70 170.90 L 693.90 174.20 L 714.60 180.80 L 723.10 184.00 L 731.20 187.70 L 739.20 191.80 L 747.00 196.20 L 756.40 202.30 L 765.50 208.90 L 774.20 215.90 L 782.60 223.50 L 790.50 231.50 L 798.10 239.80 L 805.30 248.50 L 812.00 257.60 L 818.40 267.00 L 824.30 276.50 L 829.80 286.30 L 834.80 296.30 L 840.50 310.10 L 845.80 324.00 L 850.70 338.10 L 855.20 352.30 L 859.30 366.60 L 863.00 381.10 L 866.30 395.60 L 869.20 410.30 L 871.60 425.00 L 873.60 439.80 L 875.20 454.60 L 876.30 469.50 L 876.30 481.70 L 875.80 494.30 L 874.20 511.00 L 871.30 527.60 L 869.20 535.70 L 866.70 543.60 L 863.70 551.30 L 860.20 558.70 L 856.10 565.80 L 852.70 570.90 L 848.80 575.80 L 844.60 580.50 L 839.90 585.00 L 832.80 590.90 L 825.50 596.30 L 818.00 601.30 L 810.20 605.90 L 799.60 611.50 L 788.70 616.50 L 777.50 621.00 L 766.10 624.90 L 754.50 628.50 L 742.70 631.60 L 724.90 635.70 L 707.00 639.20 L 671.40 645.30 L 675.10 651.10 L 664.50 643.80 L 653.50 637.90 L 645.80 634.60 L 638.00 631.80 L 630.00 629.50 L 613.70 626.10 L 605.30 624.80 L 592.80 623.50 L 580.10 622.70 L 555.00 621.80 L 565.80 630.50 L 571.50 634.50 L 577.10 649.80 L 550.20 651.60 L 566.30 645.70 L 574.30 642.20 L 560.70 640.10 L 547.20 639.00 L 552.90 630.80 L 545.90 609.50 L 536.80 599.00 L 529.00 587.60 L 525.60 581.60 L 522.50 575.40 L 519.90 569.00 L 517.70 562.40 L 542.70 569.20 L 540.40 566.00 L 537.80 563.30 L 534.90 561.00 L 531.60 559.30 L 528.20 557.90 L 524.60 556.90 L 517.10 556.20 L 513.20 556.40 L 512.40 558.60 L 512.00 563.00 L 512.40 566.30 L 513.30 569.60 L 519.10 582.00 L 522.80 588.90 L 527.00 595.50 L 536.50 608.00 L 546.90 619.80 L 531.90 622.70 L 489.60 627.40 L 470.60 630.50 L 463.20 632.30 L 455.90 634.40 L 448.80 637.10 L 441.80 640.30 L 435.00 644.30 L 438.60 639.90 L 422.10 637.50 L 394.20 632.70 L 372.20 627.60 L 361.30 624.60 L 350.50 621.10 L 340.00 617.20 L 329.70 612.80 L 319.70 607.80 L 310.00 602.30 L 303.00 597.80 L 296.20 592.80 L 289.60 587.50 L 283.20 581.70 L 277.90 576.40 L 273.10 570.90 L 268.90 565.00 L 265.00 558.90 L 261.60 552.50 L 258.60 546.00 L 255.90 539.20 L 253.70 532.20 L 251.20 522.80 L 249.20 513.20 L 247.90 503.40 L 247.00 493.60 L 246.50 483.90 L 246.50 474.30 L 247.10 459.40 L 248.30 444.50 L 250.00 429.70 L 252.30 414.90 L 255.10 400.20 L 258.40 385.70 L 262.30 371.20 L 266.60 356.90 L 271.40 342.70 L 276.60 328.70 L 282.20 314.90 L 288.30 301.30 L 294.70 289.40 L 301.60 277.80 L 309.00 266.40 L 317.00 255.50 L 325.30 244.90 L 334.20 234.60 L 343.50 224.70 L 353.10 215.30 L 363.10 206.20 Z M 349.90 486.80 L 344.80 485.80 L 339.50 485.30 L 333.90 485.30 L 328.40 485.90 L 322.90 486.90 L 317.50 488.50 L 312.30 490.50 L 307.40 493.00 L 302.90 496.00 L 299.70 498.60 L 294.30 504.40 L 292.00 507.70 L 290.20 511.20 L 288.70 514.90 L 287.70 518.90 L 287.10 523.20 L 287.50 528.20 L 288.20 532.90 L 289.30 537.50 L 290.90 542.00 L 292.80 546.40 L 297.70 554.50 L 300.60 558.30 L 304.90 563.00 L 309.60 567.20 L 314.80 571.00 L 320.30 574.40 L 326.10 577.20 L 332.10 579.40 L 341.40 581.70 L 350.90 582.50 L 368.50 582.90 L 377.50 582.80 L 386.40 582.20 L 392.40 581.50 L 403.90 579.20 L 409.60 577.60 L 415.00 575.50 L 420.30 573.00 L 425.30 570.10 L 430.00 566.60 L 434.60 562.50 L 438.10 558.90 L 441.00 555.10 L 443.40 551.10 L 445.30 546.80 L 448.20 537.70 L 449.70 530.60 L 452.60 509.00 L 460.70 499.70 L 467.70 489.50 L 471.70 482.30 L 475.10 474.80 L 477.90 467.10 L 481.00 455.10 L 482.70 442.90 L 482.90 430.60 L 482.40 424.40 L 481.50 418.20 L 480.20 413.60 L 478.40 409.10 L 476.10 404.90 L 473.30 401.00 L 470.00 397.50 L 466.30 394.40 L 460.10 390.80 L 453.20 388.60 L 446.40 388.00 L 439.60 387.90 L 432.90 388.40 L 426.20 389.40 L 419.60 390.90 L 413.20 392.90 L 406.90 395.40 L 400.70 398.30 L 394.80 401.70 L 389.10 405.40 L 383.70 409.50 L 378.50 414.00 L 373.70 418.80 L 369.20 423.90 L 365.20 429.20 L 361.50 434.90 L 358.20 440.80 L 355.40 446.90 L 353.10 453.10 L 351.30 459.60 L 350.10 466.20 L 349.40 472.90 L 349.40 479.70 L 349.90 486.80 Z M 632.10 429.20 L 632.00 437.10 L 632.50 445.10 L 633.50 453.00 L 635.10 461.00 L 637.20 468.70 L 639.80 476.30 L 644.80 487.20 L 651.10 497.40 L 654.70 502.10 L 658.60 506.60 L 662.90 510.80 L 667.50 514.70 L 667.40 539.70 L 668.50 547.90 L 669.60 551.70 L 671.10 555.40 L 673.30 558.90 L 676.00 562.30 L 680.20 566.20 L 684.70 569.60 L 689.30 572.70 L 694.10 575.50 L 700.80 578.70 L 707.70 581.40 L 714.90 583.50 L 722.20 585.20 L 729.70 586.30 L 737.20 587.00 L 752.20 587.20 L 765.00 586.40 L 770.20 585.70 L 780.40 583.20 L 786.90 580.80 L 793.30 577.80 L 799.40 574.40 L 805.30 570.50 L 810.90 566.20 L 816.20 561.60 L 819.20 558.40 L 821.90 554.80 L 824.30 550.80 L 826.30 546.70 L 827.90 542.40 L 829.00 538.00 L 829.60 533.50 L 829.60 529.00 L 829.10 524.60 L 827.10 518.30 L 825.60 515.30 L 823.60 512.30 L 819.90 508.40 L 816.00 504.90 L 811.70 501.90 L 807.20 499.30 L 802.50 497.00 L 792.50 493.60 L 782.20 491.60 L 776.90 491.00 L 766.40 490.80 L 767.30 484.80 L 767.80 478.80 L 767.70 473.00 L 767.20 467.20 L 766.30 461.40 L 764.90 455.80 L 763.20 450.30 L 758.50 439.60 L 752.50 429.60 L 749.00 424.80 L 743.90 418.80 L 738.30 413.20 L 732.30 408.00 L 725.90 403.30 L 719.20 399.20 L 712.20 395.60 L 706.80 393.20 L 701.20 391.20 L 689.90 388.40 L 684.10 387.50 L 678.30 387.10 L 672.50 387.10 L 666.60 387.50 L 659.30 389.30 L 652.80 392.40 L 648.80 395.20 L 645.20 398.40 L 641.90 402.10 L 639.10 406.10 L 636.70 410.30 L 634.80 414.90 L 633.40 419.60 L 632.50 424.30 L 632.10 429.20 Z M 533.80 495.30 L 536.60 498.90 L 538.50 500.60 L 547.80 507.50 L 550.20 509.80 L 551.60 511.50 L 552.40 513.30 L 552.70 515.20 L 552.50 517.10 L 551.60 519.40 L 546.60 527.90 L 544.60 530.30 L 542.20 532.40 L 538.70 534.70 L 534.90 536.50 L 530.80 537.60 L 526.60 538.20 L 522.30 538.30 L 518.00 537.70 L 511.90 535.80 L 509.10 534.30 L 504.30 531.00 L 500.90 527.50 L 498.80 524.50 L 497.10 521.20 L 491.60 507.40 L 489.50 508.80 L 488.20 510.20 L 487.40 511.70 L 486.90 513.40 L 487.10 517.10 L 489.20 522.70 L 492.00 527.80 L 494.50 531.20 L 497.40 534.30 L 500.60 537.10 L 507.70 541.70 L 515.70 544.90 L 523.90 546.60 L 527.60 546.50 L 531.00 545.90 L 534.30 544.90 L 540.30 541.90 L 547.10 536.50 L 550.80 532.70 L 557.40 524.60 L 559.50 527.80 L 564.70 533.60 L 567.70 536.10 L 572.00 538.90 L 576.60 541.20 L 581.50 543.00 L 589.00 544.50 L 596.70 544.40 L 600.50 543.90 L 604.20 542.90 L 607.80 541.50 L 615.00 537.40 L 618.20 534.90 L 620.90 531.90 L 623.20 528.60 L 625.20 525.10 L 626.80 521.30 L 628.10 517.40 L 629.70 509.40 L 627.20 509.60 L 625.30 510.20 L 622.60 512.40 L 620.60 515.70 L 617.30 524.60 L 616.00 527.40 L 613.40 530.40 L 608.70 533.60 L 605.80 535.20 L 602.70 536.40 L 599.60 537.30 L 595.20 537.80 L 590.90 537.80 L 586.60 537.10 L 582.50 535.90 L 578.50 534.20 L 574.70 531.90 L 571.30 529.30 L 568.20 526.20 L 565.60 522.70 L 562.60 516.80 L 561.60 513.50 L 561.00 510.10 L 565.90 507.20 L 570.40 503.90 L 574.50 500.10 L 578.20 496.00 L 581.60 491.50 L 584.60 486.70 L 581.80 483.70 L 578.80 481.40 L 575.50 479.50 L 572.10 478.10 L 564.70 476.40 L 558.90 476.00 L 553.00 476.10 L 547.20 476.60 L 539.60 477.80 L 537.70 478.50 L 534.40 480.90 L 532.10 484.10 L 531.40 485.90 L 531.10 489.70 L 531.50 491.60 L 532.40 493.40 L 533.80 495.30 Z" fill="#fdfdfd" fill-rule="nonzero" node-id="37" stroke="none" target-height="494.59998" target-width="629.8" target-x="246.5" target-y="157"></path><path d="M 263.70 160.80 L 268.90 156.40 L 274.30 152.50 L 280.00 148.90 L 286.00 145.70 L 292.20 143.00 L 298.50 140.60 L 305.00 138.70 L 311.70 137.10 L 318.40 136.00 L 325.10 135.30 L 331.90 135.00 L 338.60 135.10 L 345.40 135.70 L 352.10 136.70 L 358.60 138.10 L 365.10 140.00 L 371.40 142.30 L 377.40 145.00 L 383.30 148.20 L 388.90 151.80 L 394.30 155.80 L 399.30 160.30 L 403.90 165.30 L 408.30 170.80 L 420.80 166.40 L 433.40 162.60 L 446.20 159.40 L 459.10 156.80 L 472.10 154.60 L 485.10 152.90 L 511.40 150.40 L 544.40 149.00 L 564.10 148.70 L 601.60 150.50 L 620.30 152.00 L 639.00 154.20 L 651.40 156.10 L 663.70 158.30 L 685.20 163.20 L 721.70 174.20 L 731.00 176.50 L 735.20 171.30 L 739.70 166.60 L 744.50 162.20 L 749.60 158.20 L 755.00 154.60 L 760.70 151.40 L 766.50 148.60 L 772.60 146.10 L 778.80 144.10 L 785.10 142.40 L 791.50 141.20 L 798.00 140.30 L 804.50 139.90 L 811.00 139.90 L 817.50 140.30 L 824.00 141.10 L 830.40 142.40 L 836.70 144.10 L 842.90 146.30 L 854.50 151.60 L 859.90 154.60 L 865.00 158.10 L 869.90 161.80 L 878.80 170.30 L 886.70 179.90 L 893.40 190.30 L 898.90 201.40 L 903.00 213.20 L 905.60 225.20 L 906.40 231.40 L 906.80 237.50 L 906.70 243.60 L 906.30 249.80 L 905.40 255.90 L 904.10 261.90 L 902.40 267.80 L 900.20 273.70 L 897.90 278.90 L 895.20 283.70 L 892.10 288.30 L 888.70 292.60 L 883.70 298.00 L 878.20 302.90 L 872.30 307.50 L 866.20 311.60 L 859.80 315.40 L 853.20 318.70 L 859.00 335.90 L 864.40 353.30 L 869.20 370.80 L 873.60 388.50 L 877.30 406.20 L 880.40 424.10 L 882.40 437.60 L 883.90 451.10 L 885.00 464.70 L 885.80 478.30 L 884.40 502.00 L 882.40 517.90 L 879.30 533.50 L 877.10 541.10 L 874.50 548.60 L 871.50 555.90 L 868.00 563.00 L 864.00 569.90 L 860.10 575.60 L 851.60 586.20 L 837.70 601.40 L 844.30 626.90 L 847.10 639.80 L 851.70 665.90 L 853.30 679.10 L 854.60 692.20 L 855.40 705.50 L 855.90 718.70 L 855.90 731.90 L 855.40 745.10 L 854.50 758.30 L 877.00 758.40 L 922.30 758.00 L 959.90 758.20 L 990.00 759.70 L 988.00 762.20 L 985.80 763.90 L 983.40 765.10 L 980.70 765.80 L 853.20 765.50 L 850.30 777.40 L 846.10 789.00 L 843.40 794.50 L 840.40 799.80 L 834.90 807.10 L 831.70 810.40 L 824.20 816.60 L 820.10 819.30 L 815.80 821.70 L 809.20 824.80 L 802.30 827.50 L 774.20 836.70 L 772.40 840.40 L 766.50 855.50 L 764.70 859.10 L 762.60 862.50 L 756.00 869.60 L 751.80 873.10 L 747.40 876.00 L 742.60 878.40 L 737.60 880.50 L 732.40 882.20 L 724.40 884.20 L 716.30 885.60 L 700.10 887.30 L 689.60 882.40 L 684.80 881.20 L 675.10 879.70 L 667.70 879.20 L 638.10 879.30 L 598.90 877.60 L 503.40 875.30 L 471.60 874.20 L 430.10 871.90 L 420.40 870.70 L 414.00 869.60 L 401.60 866.20 L 395.60 863.90 L 389.80 861.10 L 384.20 857.60 L 412.90 845.10 L 422.30 840.60 L 434.30 833.70 L 440.10 829.80 L 441.20 825.30 L 442.40 816.10 L 442.40 811.40 L 441.90 805.20 L 440.80 799.10 L 439.20 793.00 L 437.00 787.10 L 434.40 781.50 L 431.20 776.20 L 428.30 772.10 L 425.00 768.40 L 421.50 765.10 L 415.80 760.50 L 397.20 748.20 L 391.10 743.90 L 385.50 739.10 L 391.60 739.90 L 397.60 741.20 L 403.30 743.00 L 408.90 745.30 L 414.30 748.00 L 419.40 751.20 L 424.30 754.80 L 428.90 758.90 L 438.90 760.20 L 443.80 776.30 L 446.70 784.30 L 450.10 792.00 L 452.80 796.90 L 455.90 801.50 L 459.40 805.90 L 464.50 809.10 L 469.90 811.80 L 475.40 814.00 L 486.80 817.30 L 501.80 819.70 L 528.70 821.70 L 550.60 821.90 L 561.80 821.60 L 572.90 820.80 L 580.30 819.90 L 594.70 817.10 L 601.70 815.00 L 608.50 812.50 L 615.10 809.40 L 619.80 806.70 L 624.30 803.60 L 628.70 800.20 L 633.00 796.30 L 628.20 784.60 L 623.90 772.80 L 623.00 767.50 L 622.60 762.20 L 622.70 756.90 L 623.20 751.50 L 624.20 746.30 L 625.70 741.10 L 627.60 736.20 L 630.00 731.40 L 632.80 727.00 L 636.00 722.80 L 639.60 719.00 L 643.60 715.60 L 646.90 713.40 L 654.00 709.90 L 674.40 704.10 L 674.50 689.50 L 673.40 675.00 L 672.20 667.80 L 669.10 655.70 L 681.70 661.20 L 671.40 645.30 L 707.00 639.20 L 724.90 635.70 L 742.70 631.60 L 754.50 628.50 L 766.10 624.90 L 777.50 621.00 L 788.70 616.50 L 799.60 611.50 L 810.20 605.90 L 818.00 601.30 L 825.50 596.30 L 832.80 590.90 L 839.90 585.00 L 844.60 580.50 L 848.80 575.80 L 852.70 570.90 L 856.10 565.80 L 860.20 558.70 L 863.70 551.30 L 866.70 543.60 L 869.20 535.70 L 871.30 527.60 L 872.90 519.40 L 875.10 502.70 L 876.30 481.70 L 876.30 469.50 L 875.20 454.60 L 873.60 439.80 L 871.60 425.00 L 869.20 410.30 L 866.30 395.60 L 863.00 381.10 L 859.30 366.60 L 855.20 352.30 L 850.70 338.10 L 845.80 324.00 L 840.50 310.10 L 834.80 296.30 L 829.80 286.30 L 824.30 276.50 L 818.40 267.00 L 812.00 257.60 L 805.30 248.50 L 798.10 239.80 L 790.50 231.50 L 782.60 223.50 L 774.20 215.90 L 765.50 208.90 L 756.40 202.30 L 747.00 196.20 L 739.20 191.80 L 731.20 187.70 L 723.10 184.00 L 714.60 180.80 L 706.00 177.90 L 693.90 174.20 L 681.70 170.90 L 669.50 168.00 L 657.10 165.50 L 640.50 162.70 L 623.90 160.50 L 607.10 158.80 L 590.30 157.70 L 573.50 157.10 L 556.60 157.00 L 539.80 157.20 L 506.20 158.90 L 491.10 160.30 L 465.70 163.70 L 445.50 167.60 L 435.50 170.00 L 425.70 172.80 L 416.00 176.00 L 406.50 179.70 L 397.30 183.80 L 388.20 188.50 L 381.70 192.40 L 369.20 201.30 L 363.10 206.20 L 353.10 215.30 L 343.50 224.70 L 334.20 234.60 L 325.30 244.90 L 317.00 255.50 L 309.00 266.40 L 301.60 277.80 L 294.70 289.40 L 288.30 301.30 L 282.20 314.90 L 276.60 328.70 L 271.40 342.70 L 266.60 356.90 L 262.30 371.20 L 258.40 385.70 L 255.10 400.20 L 252.30 414.90 L 250.00 429.70 L 248.30 444.50 L 247.10 459.40 L 246.50 474.30 L 246.50 483.90 L 247.00 493.60 L 247.90 503.40 L 249.20 513.20 L 251.20 522.80 L 253.70 532.20 L 255.90 539.20 L 258.60 546.00 L 261.60 552.50 L 265.00 558.90 L 268.90 565.00 L 273.10 570.90 L 277.90 576.40 L 283.20 581.70 L 289.60 587.50 L 296.20 592.80 L 303.00 597.80 L 310.00 602.30 L 319.70 607.80 L 329.70 612.80 L 340.00 617.20 L 350.50 621.10 L 361.30 624.60 L 372.20 627.60 L 383.20 630.30 L 405.40 634.80 L 438.60 639.90 L 430.10 650.90 L 427.00 656.60 L 424.60 662.50 L 422.70 668.40 L 421.20 674.50 L 419.40 686.90 L 418.80 696.50 L 419.30 744.30 L 395.40 738.70 L 383.80 735.00 L 380.90 727.00 L 378.40 719.00 L 380.90 746.10 L 401.40 756.90 L 408.10 760.80 L 416.40 766.70 L 420.20 770.00 L 423.70 773.60 L 426.90 777.60 L 429.70 782.10 L 432.20 786.80 L 434.40 792.00 L 436.20 797.30 L 437.40 802.70 L 437.80 806.40 L 437.70 810.00 L 437.30 813.50 L 436.40 816.90 L 434.90 820.20 L 432.80 823.50 L 429.00 828.10 L 424.80 832.40 L 420.10 836.30 L 415.20 839.70 L 410.00 842.60 L 404.50 845.10 L 398.80 847.20 L 393.00 848.80 L 387.10 849.90 L 381.10 850.50 L 375.10 850.70 L 361.60 849.40 L 354.20 848.10 L 347.00 846.30 L 340.00 844.00 L 333.00 841.30 L 326.30 838.30 L 319.70 834.80 L 313.30 831.00 L 307.10 826.80 L 295.30 817.60 L 289.80 812.50 L 282.80 805.40 L 276.40 797.90 L 270.40 790.00 L 266.90 784.50 L 261.00 773.20 L 258.60 767.40 L 255.80 759.40 L 253.60 751.20 L 251.80 742.90 L 249.40 726.00 L 247.90 704.60 L 247.50 692.00 L 247.70 683.70 L 248.20 675.50 L 249.30 667.40 L 250.70 659.30 L 252.60 651.40 L 257.50 635.70 L 260.50 628.10 L 265.00 618.10 L 270.00 608.40 L 275.50 598.90 L 276.80 597.30 L 277.80 594.60 L 277.60 592.50 L 276.70 590.40 L 275.40 588.50 L 262.20 571.60 L 258.40 565.80 L 255.00 559.70 L 251.00 551.40 L 247.50 542.80 L 244.60 533.90 L 242.20 524.90 L 240.30 515.70 L 239.00 506.40 L 238.00 497.10 L 237.50 487.80 L 237.30 478.50 L 237.80 463.80 L 238.70 449.10 L 240.30 434.50 L 242.50 420.00 L 245.10 405.50 L 248.20 391.10 L 251.80 376.90 L 255.80 362.70 L 261.80 343.90 L 268.30 325.40 L 275.40 307.20 L 265.20 301.20 L 255.70 294.00 L 251.40 290.00 L 247.50 285.60 L 242.50 278.40 L 238.60 270.30 L 236.10 262.80 L 234.30 255.10 L 232.90 247.30 L 232.20 239.30 L 232.10 231.30 L 232.60 223.40 L 233.60 215.40 L 235.30 207.70 L 237.60 200.00 L 242.10 189.00 L 247.90 178.70 L 251.40 173.90 L 255.10 169.30 L 259.20 164.90 L 263.70 160.80 Z M 258.60 199.00 L 254.50 210.20 L 251.60 221.90 L 250.50 229.90 L 250.00 237.90 L 250.10 246.00 L 251.50 258.00 L 254.40 269.70 L 256.40 275.40 L 258.80 280.80 L 261.50 286.20 L 264.70 291.30 L 261.30 283.20 L 258.50 274.80 L 256.20 266.00 L 254.80 259.40 L 253.80 252.70 L 253.00 239.30 L 253.20 232.60 L 253.90 226.00 L 255.00 219.50 L 256.70 213.10 L 258.80 206.80 L 261.50 200.80 L 264.70 194.90 L 268.60 189.20 L 272.40 184.10 L 276.50 179.50 L 281.00 175.20 L 285.80 171.30 L 290.90 167.70 L 296.10 164.50 L 301.60 161.70 L 307.30 159.20 L 313.20 157.10 L 319.10 155.40 L 325.20 154.10 L 331.30 153.20 L 337.50 152.70 L 343.70 152.60 L 349.90 152.90 L 356.00 153.60 L 362.10 154.80 L 368.00 156.30 L 373.90 158.30 L 379.60 160.70 L 385.00 163.60 L 390.30 166.80 L 395.30 170.60 L 400.10 174.80 L 395.20 168.30 L 389.60 162.60 L 386.30 160.20 L 382.70 158.30 L 377.20 155.80 L 371.50 153.70 L 365.80 152.00 L 359.90 150.60 L 348.00 149.20 L 336.00 149.30 L 324.10 150.80 L 312.40 153.80 L 301.20 158.10 L 290.60 163.80 L 285.60 167.10 L 280.90 170.80 L 276.40 174.70 L 272.20 179.00 L 268.30 183.60 L 264.70 188.40 L 261.50 193.50 L 258.60 199.00 Z M 739.80 181.30 L 757.30 169.60 L 767.40 164.10 L 776.30 161.00 L 782.70 159.60 L 789.00 158.70 L 795.40 158.30 L 801.80 158.50 L 808.20 159.10 L 814.40 160.20 L 820.60 161.80 L 826.80 163.80 L 832.70 166.30 L 838.50 169.10 L 844.00 172.30 L 849.30 175.90 L 854.40 179.90 L 859.10 184.20 L 863.50 188.90 L 867.60 193.80 L 871.30 199.10 L 874.50 204.60 L 877.30 210.40 L 881.70 222.70 L 883.20 229.00 L 884.10 235.30 L 884.40 241.60 L 884.30 248.00 L 883.80 254.50 L 882.50 264.00 L 880.50 273.60 L 875.70 292.30 L 878.80 287.30 L 884.10 277.00 L 886.30 271.60 L 888.00 266.10 L 889.40 260.40 L 890.30 254.70 L 890.60 248.90 L 890.30 237.00 L 889.70 231.20 L 888.70 225.40 L 887.20 219.80 L 885.40 214.20 L 880.60 203.60 L 877.70 198.50 L 873.30 192.00 L 868.50 185.90 L 863.10 180.10 L 857.30 174.90 L 851.10 170.10 L 844.50 165.80 L 839.30 162.90 L 828.60 158.20 L 817.40 154.90 L 811.60 153.80 L 805.80 153.20 L 794.10 152.80 L 788.30 153.20 L 782.50 154.00 L 776.80 155.20 L 771.30 156.90 L 765.80 159.00 L 760.60 161.60 L 755.70 164.70 L 751.10 168.10 L 746.90 172.10 L 743.10 176.40 L 739.80 181.30 Z M 831.30 609.00 L 829.80 611.50 L 829.20 613.50 L 829.20 615.00 L 829.60 616.20 L 830.60 617.30 L 832.10 618.20 L 834.60 619.00 L 836.00 616.40 L 836.60 614.50 L 836.60 612.90 L 836.20 611.70 L 835.30 610.60 L 833.70 609.70 L 831.30 609.00 Z M 845.20 700.90 L 846.50 730.80 L 846.50 740.90 L 845.50 754.30 L 844.50 760.80 L 843.10 767.20 L 841.30 773.50 L 839.00 779.60 L 836.90 784.10 L 831.70 792.60 L 828.50 796.70 L 824.00 801.20 L 819.40 805.40 L 814.40 809.00 L 809.20 812.30 L 802.00 816.20 L 794.50 819.60 L 786.60 822.40 L 778.60 824.70 L 770.50 826.70 L 762.20 828.20 L 749.80 830.00 L 737.60 831.20 L 729.30 831.30 L 720.90 831.00 L 712.30 830.20 L 703.80 828.90 L 695.50 827.10 L 687.30 824.80 L 681.30 822.60 L 675.50 820.00 L 670.00 817.10 L 664.60 813.80 L 659.60 810.10 L 654.80 806.00 L 650.50 801.40 L 643.50 792.20 L 641.10 788.00 L 639.20 783.60 L 636.20 774.40 L 635.20 769.70 L 634.20 762.40 L 633.50 755.10 L 632.90 740.60 L 632.00 747.50 L 631.80 754.40 L 632.20 761.40 L 633.20 768.30 L 634.80 775.10 L 636.90 781.70 L 639.70 788.10 L 642.90 794.10 L 646.70 799.90 L 653.30 807.70 L 661.10 814.50 L 665.30 817.40 L 669.80 820.00 L 674.60 822.20 L 687.70 826.80 L 695.90 829.00 L 704.10 830.80 L 712.50 832.10 L 720.90 832.90 L 729.30 833.30 L 737.80 833.20 L 746.20 832.70 L 754.70 831.80 L 763.00 830.40 L 771.30 828.70 L 779.50 826.50 L 787.60 823.90 L 795.50 821.00 L 803.30 817.70 L 810.90 814.10 L 816.00 811.10 L 820.70 807.80 L 824.90 804.10 L 828.70 800.00 L 832.10 795.60 L 835.20 790.90 L 837.80 786.00 L 840.20 780.80 L 842.70 773.60 L 844.70 766.20 L 846.10 758.60 L 847.00 751.00 L 847.30 743.40 L 847.30 711.10 L 846.60 698.70 L 844.40 673.90 L 840.00 643.10 L 836.90 624.60 L 837.30 634.20 L 838.10 643.80 L 843.50 681.80 L 844.50 691.30 L 845.20 700.90 Z M 328.50 635.30 L 334.00 640.80 L 339.20 646.60 L 344.00 652.60 L 348.60 658.90 L 354.20 667.50 L 359.30 676.40 L 364.00 685.60 L 368.30 695.10 L 375.90 714.20 L 375.60 703.00 L 399.10 705.10 L 410.80 706.70 L 411.70 702.00 L 392.70 700.30 L 373.60 699.70 L 360.30 672.80 L 355.50 664.00 L 352.00 658.30 L 348.10 653.00 L 343.90 648.00 L 340.50 644.40 L 332.80 638.10 L 328.50 635.30 Z M 753.80 691.30 L 744.70 694.70 L 740.10 695.80 L 733.10 697.00 L 725.90 697.70 L 704.30 699.00 L 697.10 699.80 L 687.80 701.60 L 683.20 703.00 L 699.30 702.60 L 715.40 701.70 L 726.10 700.70 L 736.70 699.30 L 747.30 697.40 L 750.80 696.20 L 753.90 694.60 L 756.70 692.60 L 761.50 687.60 L 763.50 684.70 L 766.20 680.10 L 768.50 675.30 L 772.40 665.40 L 762.20 682.90 L 759.80 686.10 L 757.00 688.90 L 753.80 691.30 Z M 652.20 714.80 L 652.20 719.00 L 732.50 713.60 L 735.60 712.90 L 738.50 711.70 L 746.80 706.70 L 723.10 708.70 L 687.60 710.70 L 675.70 711.70 L 664.00 713.00 L 652.20 714.80 Z M 497.80 827.30 L 493.40 826.80 L 484.90 825.00 L 478.70 823.00 L 460.30 815.90 L 454.10 814.00 L 447.70 812.60 L 453.70 816.80 L 459.90 820.30 L 466.30 823.30 L 472.90 825.80 L 479.60 827.90 L 486.50 829.50 L 500.60 831.70 L 507.80 832.30 L 529.40 833.10 L 550.70 833.20 L 569.60 832.10 L 579.20 831.10 L 595.10 828.20 L 607.30 824.70 L 613.20 822.40 L 618.80 819.60 L 624.20 816.50 L 629.30 812.90 L 634.20 808.70 L 638.70 804.00 L 632.60 808.50 L 626.30 812.40 L 619.90 815.90 L 613.30 818.90 L 599.70 823.80 L 585.60 827.20 L 576.00 828.70 L 566.30 829.70 L 556.40 830.30 L 546.60 830.40 L 526.80 829.80 L 497.80 827.30 Z M 739.30 867.50 L 734.10 869.50 L 728.90 871.00 L 723.60 872.10 L 691.00 876.50 L 693.60 877.80 L 699.00 879.40 L 703.20 879.90 L 707.50 879.90 L 711.70 879.50 L 724.50 877.40 L 736.10 874.10 L 741.90 871.80 L 747.30 868.90 L 750.70 866.70 L 753.70 864.20 L 756.40 861.30 L 758.70 858.10 L 760.50 854.50 L 761.80 850.40 L 747.20 862.40 L 739.30 867.50 Z" fill="#2f1925" fill-rule="nonzero" node-id="39" stroke="none" target-height="752.3" target-width="757.9" target-x="232.1" target-y="135"></path><path d="M 258.60 199.00 L 261.50 193.50 L 264.70 188.40 L 268.30 183.60 L 272.20 179.00 L 276.40 174.70 L 280.90 170.80 L 285.60 167.10 L 290.60 163.80 L 301.20 158.10 L 312.40 153.80 L 324.10 150.80 L 336.00 149.30 L 348.00 149.20 L 359.90 150.60 L 365.80 152.00 L 371.50 153.70 L 377.20 155.80 L 382.70 158.30 L 386.30 160.20 L 389.60 162.60 L 395.20 168.30 L 400.10 174.80 L 395.30 170.60 L 390.30 166.80 L 385.00 163.60 L 379.60 160.70 L 373.90 158.30 L 368.00 156.30 L 362.10 154.80 L 356.00 153.60 L 349.90 152.90 L 343.70 152.60 L 337.50 152.70 L 331.30 153.20 L 325.20 154.10 L 319.10 155.40 L 313.20 157.10 L 307.30 159.20 L 301.60 161.70 L 296.10 164.50 L 290.90 167.70 L 285.80 171.30 L 281.00 175.20 L 276.50 179.50 L 272.40 184.10 L 268.60 189.20 L 264.70 194.90 L 261.50 200.80 L 258.80 206.80 L 256.70 213.10 L 255.00 219.50 L 253.90 226.00 L 253.20 232.60 L 253.00 239.30 L 253.80 252.70 L 254.80 259.40 L 256.20 266.00 L 258.50 274.80 L 261.30 283.20 L 264.70 291.30 L 261.50 286.20 L 258.80 280.80 L 256.40 275.40 L 254.40 269.70 L 251.50 258.00 L 250.10 246.00 L 250.00 237.90 L 250.50 229.90 L 251.60 221.90 L 254.50 210.20 L 258.60 199.00 Z" fill="#a26a69" fill-rule="nonzero" node-id="41" stroke="none" target-height="142.09999" target-width="150.1" target-x="250" target-y="149.2"></path><path d="M 271.00 582.70 L 276.70 590.40 L 277.60 592.50 L 277.80 594.60 L 277.50 595.90 L 270.00 608.40 L 265.00 618.10 L 260.50 628.10 L 257.50 635.70 L 252.60 651.40 L 250.70 659.30 L 249.30 667.40 L 248.20 675.50 L 247.70 683.70 L 247.50 692.00 L 248.60 717.40 L 250.40 734.50 L 251.80 742.90 L 253.60 751.20 L 255.80 759.40 L 258.60 767.40 L 261.00 773.20 L 266.90 784.50 L 270.40 790.00 L 276.40 797.90 L 282.80 805.40 L 289.80 812.50 L 295.30 817.60 L 307.10 826.80 L 319.70 834.80 L 326.30 838.30 L 333.00 841.30 L 340.00 844.00 L 347.00 846.30 L 354.20 848.10 L 361.60 849.40 L 375.10 850.70 L 381.10 850.50 L 387.10 849.90 L 393.00 848.80 L 398.80 847.20 L 404.50 845.10 L 410.00 842.60 L 415.20 839.70 L 420.10 836.30 L 424.80 832.40 L 429.00 828.10 L 432.80 823.50 L 434.90 820.20 L 436.40 816.90 L 437.30 813.50 L 437.70 810.00 L 437.80 806.40 L 437.40 802.70 L 436.20 797.30 L 434.40 792.00 L 432.20 786.80 L 429.70 782.10 L 426.90 777.60 L 423.70 773.60 L 420.20 770.00 L 416.40 766.70 L 408.10 760.80 L 401.40 756.90 L 380.90 746.10 L 378.40 719.00 L 380.90 727.00 L 383.80 735.00 L 395.40 738.70 L 419.30 744.30 L 418.80 696.50 L 419.40 686.90 L 420.10 680.70 L 422.70 668.40 L 424.60 662.50 L 427.00 656.60 L 430.10 650.90 L 428.00 661.40 L 426.50 671.90 L 425.50 682.50 L 423.90 714.40 L 423.60 731.90 L 424.30 741.50 L 426.10 749.00 L 427.40 752.50 L 429.20 755.90 L 431.50 759.30 L 428.90 758.90 L 424.30 754.80 L 419.40 751.20 L 414.30 748.00 L 408.90 745.30 L 403.30 743.00 L 397.60 741.20 L 391.60 739.90 L 385.50 739.10 L 391.10 743.90 L 415.80 760.50 L 421.50 765.10 L 425.00 768.40 L 428.30 772.10 L 431.20 776.20 L 434.40 781.50 L 437.00 787.10 L 439.20 793.00 L 440.80 799.10 L 441.90 805.20 L 442.40 811.40 L 442.40 816.10 L 441.20 825.30 L 440.10 829.80 L 428.40 837.30 L 412.90 845.10 L 384.20 857.60 L 389.80 861.10 L 395.60 863.90 L 401.60 866.20 L 414.00 869.60 L 420.40 870.70 L 430.10 871.90 L 471.60 874.20 L 503.40 875.30 L 598.90 877.60 L 638.10 879.30 L 667.70 879.20 L 680.00 880.30 L 689.60 882.40 L 558.60 881.30 L 493.20 881.20 L 487.10 887.40 L 472.50 887.40 L 457.90 886.90 L 443.20 886.00 L 428.60 884.60 L 414.00 882.50 L 399.60 879.80 L 404.00 880.00 L 408.30 879.60 L 412.40 878.80 L 416.50 877.30 L 412.50 875.50 L 395.00 869.20 L 388.50 865.60 L 384.30 861.70 L 382.70 859.30 L 381.30 856.50 L 380.30 853.20 L 359.30 860.60 L 367.90 854.40 L 358.20 852.70 L 348.70 850.40 L 339.30 847.50 L 332.40 844.90 L 325.60 842.10 L 312.60 835.30 L 300.40 827.30 L 289.10 818.00 L 283.80 812.90 L 278.90 807.50 L 274.20 801.70 L 269.90 795.70 L 265.20 789.00 L 261.20 782.20 L 257.70 775.10 L 254.70 767.90 L 252.10 760.50 L 250.00 752.90 L 248.20 745.20 L 246.80 737.40 L 245.50 726.90 L 244.60 716.30 L 244.20 705.60 L 244.30 689.60 L 245.00 674.00 L 245.50 667.30 L 246.40 660.80 L 249.50 648.10 L 253.70 635.70 L 261.60 617.50 L 270.20 599.70 L 269.90 595.10 L 268.40 594.00 L 271.00 582.70 Z M 425.90 879.30 L 428.20 883.70 L 473.00 885.70 L 487.90 886.60 L 487.40 878.90 L 479.70 879.20 L 471.90 879.00 L 448.30 877.70 L 440.70 877.70 L 435.60 877.90 L 425.90 879.30 Z" fill="#a26a69" fill-rule="nonzero" node-id="43" stroke="none" target-height="304.7" target-width="445.39996" target-x="244.2" target-y="582.7"></path><path d="M 739.80 181.30 L 743.10 176.40 L 746.90 172.10 L 751.10 168.10 L 755.70 164.70 L 760.60 161.60 L 765.80 159.00 L 771.30 156.90 L 776.80 155.20 L 782.50 154.00 L 788.30 153.20 L 794.10 152.80 L 805.80 153.20 L 811.60 153.80 L 817.40 154.90 L 828.60 158.20 L 839.30 162.90 L 844.50 165.80 L 851.10 170.10 L 857.30 174.90 L 863.10 180.10 L 868.50 185.90 L 873.30 192.00 L 877.70 198.50 L 880.60 203.60 L 885.40 214.20 L 887.20 219.80 L 888.70 225.40 L 889.70 231.20 L 890.30 237.00 L 890.60 248.90 L 890.30 254.70 L 889.40 260.40 L 888.00 266.10 L 886.30 271.60 L 884.10 277.00 L 878.80 287.30 L 875.70 292.30 L 880.50 273.60 L 882.50 264.00 L 883.80 254.50 L 884.30 248.00 L 884.40 241.60 L 884.10 235.30 L 883.20 229.00 L 881.70 222.70 L 877.30 210.40 L 874.50 204.60 L 871.30 199.10 L 867.60 193.80 L 863.50 188.90 L 859.10 184.20 L 854.40 179.90 L 849.30 175.90 L 844.00 172.30 L 838.50 169.10 L 832.70 166.30 L 826.80 163.80 L 820.60 161.80 L 814.40 160.20 L 808.20 159.10 L 801.80 158.50 L 795.40 158.30 L 789.00 158.70 L 782.70 159.60 L 776.30 161.00 L 767.40 164.10 L 757.30 169.60 L 739.80 181.30 Z" fill="#644a51" fill-rule="nonzero" node-id="45" stroke="none" target-height="139.49998" target-width="150.79999" target-x="739.8" target-y="152.8"></path><path d="M 845.20 700.90 L 844.50 691.30 L 843.50 681.80 L 838.10 643.80 L 837.30 634.20 L 836.90 624.60 L 840.00 643.10 L 844.40 673.90 L 846.60 698.70 L 847.30 711.10 L 847.30 743.40 L 847.00 751.00 L 846.10 758.60 L 844.70 766.20 L 842.70 773.60 L 840.20 780.80 L 837.80 786.00 L 835.20 790.90 L 832.10 795.60 L 828.70 800.00 L 824.90 804.10 L 820.70 807.80 L 816.00 811.10 L 810.90 814.10 L 803.30 817.70 L 795.60 821.00 L 787.60 823.90 L 779.50 826.50 L 771.30 828.70 L 763.00 830.40 L 754.70 831.80 L 746.20 832.70 L 737.80 833.20 L 729.30 833.30 L 720.90 832.90 L 712.50 832.10 L 704.10 830.80 L 695.90 829.00 L 687.70 826.80 L 679.70 824.10 L 674.60 822.20 L 669.80 820.00 L 665.30 817.40 L 661.10 814.50 L 653.30 807.70 L 646.70 799.90 L 642.90 794.10 L 639.70 788.10 L 636.90 781.70 L 634.80 775.10 L 633.20 768.30 L 632.20 761.40 L 631.80 754.40 L 632.00 747.50 L 632.90 740.60 L 633.50 755.10 L 634.20 762.40 L 635.20 769.70 L 636.20 774.40 L 639.20 783.60 L 641.10 788.00 L 643.50 792.20 L 650.50 801.40 L 654.80 806.00 L 659.60 810.10 L 664.60 813.80 L 670.00 817.10 L 675.50 820.00 L 681.30 822.60 L 687.30 824.80 L 695.50 827.10 L 703.80 828.90 L 712.30 830.20 L 720.90 831.00 L 729.30 831.30 L 737.60 831.20 L 749.80 830.00 L 762.20 828.20 L 770.50 826.70 L 778.60 824.70 L 786.60 822.40 L 794.50 819.60 L 802.00 816.20 L 809.20 812.30 L 814.40 809.00 L 819.40 805.30 L 824.00 801.20 L 828.50 796.70 L 831.70 792.60 L 836.90 784.10 L 839.00 779.60 L 841.30 773.50 L 843.10 767.20 L 844.50 760.80 L 845.50 754.30 L 846.50 740.90 L 846.50 730.80 L 845.20 700.90 Z" fill="#facfd1" fill-rule="nonzero" node-id="47" stroke="none" target-height="208.70001" target-width="215.5" target-x="631.8" target-y="624.6"></path><path d="M 753.80 691.30 L 757.00 688.90 L 759.80 686.10 L 762.20 682.90 L 772.40 665.40 L 768.50 675.30 L 766.20 680.10 L 763.50 684.70 L 761.50 687.60 L 756.70 692.60 L 753.90 694.60 L 750.80 696.20 L 747.30 697.40 L 736.70 699.30 L 726.10 700.70 L 715.40 701.70 L 699.30 702.60 L 683.20 703.00 L 687.80 701.60 L 697.10 699.80 L 704.30 699.00 L 725.90 697.70 L 733.10 697.00 L 740.10 695.80 L 744.70 694.70 L 753.80 691.30 Z" fill="#facfd1" fill-rule="nonzero" node-id="49" stroke="none" target-height="37.599976" target-width="89.20001" target-x="683.2" target-y="665.4"></path><path d="M 497.80 827.30 L 526.80 829.80 L 546.60 830.40 L 566.30 829.70 L 576.00 828.70 L 585.60 827.20 L 599.70 823.80 L 613.30 818.90 L 619.90 815.90 L 626.30 812.40 L 632.60 808.50 L 638.70 804.00 L 634.20 808.70 L 629.30 812.90 L 624.20 816.50 L 618.80 819.60 L 613.20 822.40 L 607.30 824.70 L 595.10 828.20 L 579.20 831.10 L 569.60 832.10 L 550.70 833.20 L 529.40 833.10 L 507.80 832.30 L 500.60 831.70 L 486.50 829.50 L 479.60 827.90 L 472.90 825.80 L 466.30 823.30 L 459.90 820.30 L 453.70 816.80 L 447.70 812.60 L 454.10 814.00 L 460.30 815.90 L 478.70 823.00 L 484.90 825.00 L 493.40 826.80 L 497.80 827.30 Z" fill="#facfd1" fill-rule="nonzero" node-id="51" stroke="none" target-height="29.200012" target-width="191" target-x="447.7" target-y="804"></path><path d="M 349.90 486.80 L 349.40 479.70 L 349.40 472.90 L 350.10 466.20 L 351.30 459.60 L 353.10 453.10 L 355.40 446.90 L 358.20 440.80 L 361.50 434.90 L 365.20 429.20 L 369.20 423.90 L 373.70 418.80 L 378.50 414.00 L 383.70 409.50 L 389.10 405.40 L 394.80 401.70 L 400.70 398.30 L 406.90 395.40 L 413.20 392.90 L 419.60 390.90 L 426.20 389.40 L 432.90 388.40 L 439.60 387.90 L 446.40 388.00 L 453.20 388.60 L 456.80 389.50 L 463.30 392.40 L 466.30 394.40 L 470.00 397.50 L 473.30 401.00 L 476.10 404.90 L 478.40 409.10 L 480.20 413.60 L 481.50 418.20 L 482.40 424.40 L 482.90 430.60 L 482.70 442.90 L 482.00 449.10 L 479.60 461.10 L 477.90 467.10 L 475.10 474.80 L 471.70 482.30 L 467.70 489.50 L 464.30 494.70 L 456.80 504.50 L 452.60 509.00 L 448.50 512.40 L 444.10 515.30 L 439.60 517.90 L 434.80 520.10 L 424.90 523.50 L 414.60 525.40 L 407.50 525.90 L 400.60 525.70 L 393.60 525.00 L 388.40 524.00 L 378.40 521.00 L 373.50 519.00 L 369.40 516.80 L 365.60 514.20 L 362.30 511.00 L 359.40 507.60 L 356.90 503.80 L 354.60 499.70 L 352.80 495.50 L 349.90 486.80 Z M 423.20 472.70 L 426.80 471.90 L 430.20 470.80 L 433.40 469.20 L 436.30 467.30 L 439.10 465.10 L 441.50 462.50 L 443.60 459.70 L 445.30 456.60 L 446.70 453.10 L 444.20 451.40 L 441.80 450.50 L 439.30 450.10 L 436.70 450.20 L 434.20 450.90 L 431.80 452.00 L 429.50 453.40 L 425.60 457.30 L 424.10 459.60 L 423.00 462.10 L 422.30 464.70 L 422.00 467.30 L 422.30 470.00 L 423.20 472.70 Z" fill="#311a27" fill-rule="nonzero" node-id="53" stroke="none" target-height="138.00003" target-width="133.5" target-x="349.4" target-y="387.9"></path><path d="M 632.10 429.20 L 632.50 424.30 L 633.40 419.60 L 634.80 414.90 L 636.70 410.30 L 639.10 406.10 L 641.90 402.10 L 645.20 398.40 L 648.80 395.20 L 652.80 392.40 L 655.90 390.70 L 662.80 388.20 L 666.60 387.50 L 672.50 387.10 L 678.30 387.10 L 684.10 387.50 L 689.90 388.40 L 701.20 391.20 L 706.80 393.20 L 712.20 395.60 L 719.20 399.20 L 725.90 403.30 L 732.30 408.00 L 738.30 413.20 L 743.90 418.80 L 749.00 424.80 L 752.50 429.60 L 755.70 434.50 L 761.00 444.90 L 763.20 450.30 L 764.90 455.80 L 766.30 461.40 L 767.20 467.20 L 767.70 473.00 L 767.80 478.80 L 767.30 484.80 L 766.40 490.80 L 764.60 495.90 L 762.50 500.50 L 760.00 504.70 L 757.10 508.50 L 753.80 512.00 L 750.30 515.10 L 746.50 517.90 L 742.40 520.30 L 733.60 524.20 L 728.90 525.60 L 724.10 526.60 L 717.60 527.60 L 710.90 527.90 L 704.20 527.60 L 697.50 526.80 L 691.00 525.50 L 684.70 523.60 L 678.50 521.10 L 672.80 518.20 L 667.50 514.70 L 662.90 510.80 L 658.60 506.60 L 654.70 502.10 L 651.10 497.40 L 644.80 487.20 L 639.80 476.30 L 637.20 468.70 L 635.10 461.00 L 633.50 453.00 L 632.50 445.10 L 632.00 437.10 L 632.10 429.20 Z M 670.60 451.10 L 671.40 456.60 L 672.20 459.30 L 673.30 461.80 L 676.30 466.30 L 678.10 468.20 L 682.60 471.10 L 685.00 471.90 L 687.80 472.30 L 690.80 472.20 L 692.20 469.90 L 692.90 467.60 L 693.10 465.40 L 692.70 463.10 L 691.90 461.00 L 689.10 457.00 L 685.10 453.70 L 680.40 451.50 L 675.40 450.50 L 672.90 450.60 L 670.60 451.10 Z" fill="#301a26" fill-rule="nonzero" node-id="55" stroke="none" target-height="140.80002" target-width="135.79999" target-x="632" target-y="387.1"></path><path d="M 423.20 472.70 L 422.30 470.00 L 422.00 467.30 L 422.30 464.70 L 423.00 462.10 L 424.10 459.60 L 425.60 457.30 L 429.50 453.40 L 431.80 452.00 L 434.20 450.90 L 436.70 450.20 L 439.30 450.10 L 441.80 450.50 L 444.20 451.40 L 446.70 453.10 L 445.30 456.60 L 443.60 459.70 L 441.50 462.50 L 439.10 465.10 L 436.30 467.30 L 433.40 469.20 L 430.20 470.80 L 426.80 471.90 L 423.20 472.70 Z" fill="#fff9fa" fill-rule="nonzero" node-id="57" stroke="none" target-height="22.600006" target-width="24.700012" target-x="422" target-y="450.1"></path><path d="M 670.60 451.10 L 672.90 450.60 L 675.40 450.50 L 677.90 450.80 L 682.80 452.40 L 685.10 453.70 L 687.30 455.30 L 690.70 458.90 L 691.90 461.00 L 692.70 463.10 L 693.10 465.40 L 692.90 467.60 L 692.20 469.90 L 690.80 472.20 L 687.80 472.30 L 685.00 471.90 L 682.60 471.10 L 680.20 469.80 L 676.30 466.30 L 673.30 461.80 L 671.40 456.60 L 670.60 451.10 Z" fill="#fffaf9" fill-rule="nonzero" node-id="59" stroke="none" target-height="21.799988" target-width="22.5" target-x="670.6" target-y="450.5"></path><path d="M 533.80 495.30 L 532.40 493.40 L 531.50 491.60 L 531.10 489.70 L 531.40 485.90 L 532.10 484.10 L 534.40 480.90 L 537.70 478.50 L 539.60 477.80 L 547.20 476.60 L 553.00 476.10 L 558.90 476.00 L 564.70 476.40 L 568.50 477.10 L 572.10 478.10 L 575.50 479.50 L 578.80 481.40 L 581.80 483.70 L 584.60 486.70 L 581.60 491.50 L 578.20 496.00 L 574.50 500.10 L 570.40 503.90 L 565.90 507.20 L 561.00 510.10 L 561.60 513.50 L 562.60 516.80 L 565.60 522.70 L 568.20 526.20 L 571.30 529.30 L 574.70 531.90 L 578.50 534.20 L 582.50 535.90 L 586.60 537.10 L 590.90 537.80 L 595.20 537.80 L 599.60 537.30 L 602.70 536.40 L 605.80 535.20 L 608.70 533.60 L 613.40 530.40 L 616.00 527.40 L 617.30 524.60 L 620.60 515.70 L 622.60 512.40 L 625.30 510.20 L 627.20 509.60 L 629.70 509.40 L 628.10 517.40 L 626.80 521.30 L 625.20 525.10 L 623.20 528.60 L 620.90 531.90 L 618.20 534.90 L 615.00 537.40 L 607.80 541.50 L 604.20 542.90 L 600.50 543.90 L 596.70 544.40 L 589.00 544.50 L 581.50 543.00 L 576.60 541.20 L 572.00 538.90 L 567.70 536.10 L 564.70 533.60 L 559.50 527.80 L 557.40 524.60 L 550.80 532.70 L 547.10 536.50 L 540.30 541.90 L 534.30 544.90 L 531.00 545.90 L 527.60 546.50 L 523.90 546.60 L 515.70 544.90 L 507.70 541.70 L 500.60 537.10 L 497.40 534.30 L 494.50 531.20 L 492.00 527.80 L 489.20 522.70 L 487.10 517.10 L 486.90 513.40 L 487.40 511.70 L 488.20 510.20 L 489.50 508.80 L 491.60 507.40 L 497.10 521.20 L 498.80 524.50 L 500.90 527.50 L 504.30 531.00 L 509.10 534.30 L 511.90 535.80 L 518.00 537.70 L 522.30 538.30 L 526.60 538.20 L 530.80 537.60 L 534.90 536.50 L 538.70 534.70 L 542.20 532.40 L 544.60 530.30 L 546.60 527.90 L 551.60 519.40 L 552.50 517.10 L 552.70 515.20 L 552.40 513.30 L 551.60 511.50 L 550.20 509.80 L 547.80 507.50 L 538.50 500.60 L 536.60 498.90 L 533.80 495.30 Z" fill="#351d27" fill-rule="nonzero" node-id="61" stroke="none" target-height="70.599976" target-width="142.80002" target-x="486.9" target-y="476"></path><path d="M 287.10 523.20 L 287.70 518.90 L 288.70 514.90 L 290.20 511.20 L 292.00 507.70 L 294.30 504.40 L 299.70 498.60 L 302.90 496.00 L 307.40 493.00 L 312.30 490.50 L 317.50 488.50 L 322.90 486.90 L 328.40 485.90 L 333.90 485.30 L 339.50 485.30 L 344.80 485.80 L 349.90 486.80 L 352.80 495.50 L 354.60 499.70 L 356.90 503.80 L 359.40 507.60 L 362.30 511.00 L 365.60 514.20 L 369.40 516.80 L 373.50 519.00 L 378.40 521.00 L 388.40 524.00 L 393.60 525.00 L 400.60 525.70 L 407.50 525.90 L 414.60 525.40 L 424.90 523.50 L 434.80 520.10 L 439.60 517.90 L 444.10 515.30 L 448.50 512.40 L 452.60 509.00 L 449.70 530.60 L 446.90 542.30 L 443.40 551.10 L 441.00 555.10 L 438.10 558.90 L 430.00 566.60 L 425.30 570.10 L 420.30 573.00 L 415.00 575.50 L 409.60 577.60 L 403.90 579.20 L 392.40 581.50 L 386.40 582.20 L 377.50 582.80 L 368.50 582.90 L 346.10 582.30 L 336.70 580.70 L 332.10 579.40 L 326.10 577.20 L 320.30 574.40 L 314.80 571.00 L 309.60 567.20 L 304.90 563.00 L 300.60 558.30 L 295.10 550.50 L 290.90 542.00 L 289.30 537.50 L 288.20 532.90 L 287.50 528.20 L 287.10 523.20 Z M 308.30 524.30 L 332.60 523.70 L 330.80 504.40 L 326.50 505.00 L 319.80 507.10 L 315.20 509.90 L 313.20 511.60 L 310.10 515.90 L 309.10 518.30 L 308.50 521.10 L 308.30 524.30 Z" fill="#f9d1d2" fill-rule="nonzero" node-id="63" stroke="none" target-height="97.60004" target-width="165.5" target-x="287.1" target-y="485.3"></path><path d="M 766.40 490.80 L 776.90 491.00 L 782.20 491.60 L 792.50 493.60 L 802.50 497.00 L 807.20 499.30 L 811.70 501.90 L 816.00 504.90 L 819.90 508.40 L 823.60 512.30 L 825.60 515.30 L 828.30 521.40 L 829.10 524.60 L 829.60 529.00 L 829.60 533.50 L 829.00 538.00 L 827.90 542.40 L 826.30 546.70 L 824.30 550.80 L 821.90 554.80 L 819.20 558.40 L 816.20 561.60 L 810.90 566.20 L 805.30 570.50 L 799.40 574.40 L 793.30 577.80 L 786.90 580.80 L 780.40 583.20 L 775.30 584.60 L 765.00 586.40 L 752.20 587.20 L 737.20 587.00 L 729.70 586.30 L 722.20 585.20 L 714.90 583.50 L 707.70 581.40 L 700.80 578.70 L 694.10 575.50 L 689.30 572.70 L 684.70 569.60 L 680.20 566.20 L 676.00 562.30 L 673.20 558.90 L 671.10 555.40 L 669.60 551.70 L 667.80 543.90 L 667.40 539.70 L 667.50 514.70 L 672.80 518.20 L 678.50 521.10 L 684.70 523.60 L 691.00 525.50 L 697.50 526.80 L 704.20 527.60 L 710.90 527.90 L 717.60 527.60 L 724.10 526.60 L 728.90 525.60 L 733.60 524.20 L 742.40 520.30 L 746.50 517.90 L 750.30 515.10 L 753.80 512.00 L 757.10 508.50 L 760.00 504.70 L 762.50 500.50 L 764.60 495.90 L 766.40 490.80 Z" fill="#facfd0" fill-rule="nonzero" node-id="65" stroke="none" target-height="96.400024" target-width="162.19995" target-x="667.4" target-y="490.8"></path><path d="M 308.30 524.30 L 308.50 521.10 L 309.10 518.30 L 310.10 515.90 L 311.50 513.60 L 313.20 511.60 L 315.20 509.90 L 319.80 507.10 L 326.50 505.00 L 330.80 504.40 L 332.60 523.70 L 308.30 524.30 Z" fill="#fbedec" fill-rule="nonzero" node-id="67" stroke="none" target-height="19.899994" target-width="24.300018" target-x="308.3" target-y="504.4"></path><path d="M 513.20 556.40 L 517.10 556.20 L 524.60 556.90 L 528.20 557.90 L 531.60 559.30 L 534.90 561.00 L 537.80 563.30 L 540.40 566.00 L 542.70 569.20 L 517.70 562.40 L 519.90 569.00 L 522.50 575.40 L 525.60 581.60 L 529.00 587.60 L 536.80 599.00 L 545.90 609.50 L 552.90 630.80 L 547.20 639.00 L 560.70 640.10 L 574.30 642.20 L 566.30 645.70 L 550.20 651.60 L 577.10 649.80 L 571.50 634.50 L 565.80 630.50 L 555.00 621.80 L 580.10 622.70 L 592.80 623.50 L 605.30 624.80 L 613.70 626.10 L 630.00 629.50 L 638.00 631.80 L 645.80 634.60 L 653.50 637.90 L 664.50 643.80 L 675.10 651.10 L 681.70 661.20 L 669.10 655.70 L 670.40 660.70 L 664.30 655.70 L 658.00 651.10 L 645.10 642.50 L 658.70 654.10 L 661.80 657.30 L 664.20 660.90 L 665.50 663.50 L 666.30 666.30 L 666.80 669.40 L 667.40 678.60 L 667.40 687.80 L 666.60 706.20 L 658.00 708.60 L 658.00 687.20 L 657.40 666.00 L 646.30 668.70 L 635.00 671.10 L 623.70 672.90 L 612.30 674.30 L 589.40 676.20 L 555.00 677.20 L 534.90 676.80 L 514.80 675.90 L 488.00 673.60 L 461.50 670.10 L 448.30 667.70 L 435.10 664.90 L 434.40 681.70 L 434.30 698.60 L 434.70 715.40 L 435.50 730.40 L 436.90 745.30 L 438.90 760.20 L 431.50 759.30 L 429.20 755.90 L 427.40 752.50 L 426.10 749.00 L 424.30 741.50 L 423.60 731.90 L 423.90 714.40 L 425.50 682.50 L 426.50 671.90 L 428.00 661.40 L 430.10 650.90 L 435.00 644.30 L 441.80 640.30 L 448.80 637.10 L 455.90 634.40 L 463.20 632.30 L 470.60 630.50 L 489.60 627.40 L 531.90 622.70 L 546.90 619.80 L 536.50 608.00 L 531.60 601.80 L 527.00 595.50 L 522.80 588.90 L 519.10 582.00 L 514.60 572.70 L 512.40 566.30 L 512.00 563.00 L 512.00 560.90 L 513.20 556.40 Z M 440.90 658.70 L 452.30 661.60 L 463.80 663.90 L 487.10 667.00 L 510.40 669.10 L 534.00 669.80 L 557.60 670.00 L 573.30 669.70 L 589.00 668.90 L 604.70 667.60 L 616.40 666.20 L 628.00 664.40 L 639.60 662.20 L 651.10 659.60 L 646.30 656.30 L 641.30 653.60 L 636.20 651.50 L 625.40 648.40 L 611.30 646.30 L 585.80 644.20 L 581.30 654.10 L 579.90 656.40 L 578.20 658.30 L 575.20 659.90 L 569.40 661.50 L 565.60 662.10 L 562.00 662.00 L 558.40 661.40 L 554.90 660.30 L 551.60 658.70 L 548.40 656.70 L 542.80 651.70 L 540.30 648.80 L 536.20 642.50 L 511.90 643.40 L 499.70 644.20 L 487.40 645.40 L 479.30 646.60 L 463.50 650.10 L 455.80 652.50 L 448.30 655.30 L 440.90 658.70 Z" fill="#431f2d" fill-rule="nonzero" node-id="69" stroke="none" target-height="204" target-width="258.1" target-x="423.6" target-y="556.2"></path><path d="M 268.40 594.00 L 269.90 595.10 L 270.20 599.70 L 257.50 626.50 L 251.50 641.80 L 247.80 654.40 L 246.40 660.80 L 245.50 667.30 L 245.00 674.00 L 244.30 689.60 L 244.20 705.60 L 244.60 716.30 L 245.50 726.90 L 246.80 737.40 L 248.20 745.20 L 250.00 752.90 L 252.10 760.50 L 254.70 767.90 L 257.70 775.10 L 261.20 782.20 L 265.20 789.00 L 274.20 801.70 L 278.90 807.50 L 283.80 812.90 L 289.10 818.00 L 300.40 827.30 L 312.60 835.30 L 325.60 842.10 L 332.40 844.90 L 339.30 847.50 L 348.70 850.40 L 358.20 852.70 L 367.90 854.40 L 361.30 859.20 L 353.30 858.20 L 345.50 856.70 L 338.00 854.70 L 330.60 852.20 L 323.40 849.30 L 316.40 845.90 L 309.60 842.10 L 303.10 838.00 L 296.70 833.40 L 290.60 828.50 L 284.80 823.40 L 279.10 817.80 L 268.80 806.00 L 259.50 793.30 L 254.00 784.30 L 249.00 775.20 L 244.70 765.70 L 222.20 765.40 L 110.00 765.30 L 114.50 758.70 L 146.50 758.10 L 178.50 758.00 L 242.40 758.30 L 240.00 745.30 L 238.10 732.00 L 236.70 718.60 L 236.20 708.60 L 236.00 698.50 L 236.30 688.50 L 236.90 678.50 L 238.10 668.50 L 239.70 658.70 L 241.80 649.00 L 244.50 639.30 L 247.60 629.90 L 251.40 620.70 L 255.80 611.60 L 260.80 602.70 L 268.40 594.00 Z" fill="#2e1923" fill-rule="nonzero" node-id="71" stroke="none" target-height="265.2" target-width="257.9" target-x="110" target-y="594"></path><path d="M 365.00 858.60 L 380.30 853.20 L 381.30 856.50 L 382.70 859.30 L 384.30 861.70 L 388.50 865.60 L 395.00 869.20 L 412.50 875.50 L 416.50 877.30 L 412.40 878.80 L 408.30 879.60 L 404.00 880.00 L 399.60 879.80 L 395.30 878.20 L 387.20 874.30 L 381.50 870.70 L 365.00 858.60 Z" fill="#2e1923" fill-rule="nonzero" node-id="73" stroke="none" target-height="26.799988" target-width="51.5" target-x="365" target-y="853.2"></path><path d="M 831.30 609.00 L 833.70 609.70 L 835.30 610.60 L 836.20 611.70 L 836.60 612.90 L 836.60 614.50 L 836.00 616.40 L 834.60 619.00 L 832.10 618.20 L 830.60 617.30 L 829.60 616.20 L 829.20 615.00 L 829.20 613.50 L 829.80 611.50 L 831.30 609.00 Z" fill="#866771" fill-rule="nonzero" node-id="75" stroke="none" target-height="10" target-width="7.3999634" target-x="829.2" target-y="609"></path><path d="M 328.50 635.30 L 332.80 638.10 L 340.50 644.40 L 343.90 648.00 L 348.10 653.00 L 352.00 658.30 L 355.50 664.00 L 360.30 672.80 L 373.60 699.70 L 392.70 700.30 L 411.70 702.00 L 410.80 706.70 L 399.10 705.10 L 375.60 703.00 L 375.90 714.20 L 368.30 695.10 L 364.00 685.60 L 359.30 676.40 L 354.20 667.50 L 348.60 658.90 L 344.00 652.60 L 339.20 646.60 L 334.00 640.80 L 328.50 635.30 Z" fill="#e0cbc8" fill-rule="nonzero" node-id="77" stroke="none" target-height="78.900024" target-width="83.20001" target-x="328.5" target-y="635.3"></path><path d="M 645.10 642.50 L 658.00 651.10 L 664.30 655.70 L 670.40 660.70 L 672.20 667.80 L 673.40 675.00 L 674.10 682.20 L 674.50 689.50 L 674.40 704.10 L 666.60 706.20 L 667.40 687.80 L 667.40 678.60 L 666.80 669.40 L 666.30 666.30 L 665.50 663.50 L 664.20 660.90 L 661.80 657.30 L 658.70 654.10 L 645.10 642.50 Z" fill="#e0cbc8" fill-rule="nonzero" node-id="79" stroke="none" target-height="63.700012" target-width="29.400024" target-x="645.1" target-y="642.5"></path><path d="M 440.90 658.70 L 448.30 655.30 L 455.80 652.50 L 463.50 650.10 L 471.40 648.20 L 487.40 645.40 L 499.70 644.20 L 511.90 643.40 L 536.20 642.50 L 540.30 648.80 L 542.80 651.70 L 548.40 656.70 L 551.60 658.70 L 554.90 660.30 L 558.40 661.40 L 562.00 662.00 L 565.60 662.10 L 569.40 661.50 L 575.20 659.90 L 578.20 658.30 L 579.90 656.40 L 581.30 654.10 L 585.80 644.20 L 611.30 646.30 L 619.80 647.40 L 630.80 649.80 L 636.20 651.50 L 641.30 653.70 L 646.30 656.30 L 651.10 659.60 L 639.60 662.20 L 628.00 664.40 L 616.40 666.20 L 604.70 667.60 L 589.00 668.90 L 573.30 669.70 L 557.60 670.00 L 534.00 669.80 L 510.40 669.10 L 498.80 668.10 L 475.40 665.60 L 463.80 663.90 L 452.30 661.60 L 440.90 658.70 Z" fill="#cc8664" fill-rule="nonzero" node-id="81" stroke="none" target-height="27.5" target-width="210.19998" target-x="440.9" target-y="642.5"></path><path d="M 435.10 664.90 L 448.30 667.70 L 461.50 670.10 L 488.00 673.60 L 514.80 675.90 L 534.90 676.80 L 555.00 677.20 L 589.40 676.20 L 612.30 674.30 L 623.70 672.90 L 635.00 671.10 L 646.30 668.70 L 657.40 666.00 L 658.00 687.20 L 658.00 708.60 L 650.30 711.50 L 643.60 715.60 L 639.60 719.00 L 636.00 722.80 L 632.80 727.00 L 630.00 731.40 L 627.60 736.20 L 625.70 741.10 L 624.20 746.30 L 623.20 751.50 L 622.70 756.90 L 622.60 762.20 L 623.00 767.50 L 623.90 772.80 L 618.00 773.50 L 606.50 776.20 L 572.90 787.70 L 561.40 790.50 L 548.90 792.40 L 535.20 793.10 L 528.20 793.00 L 521.40 792.30 L 514.60 791.30 L 507.90 789.70 L 501.50 787.50 L 495.20 784.90 L 490.80 782.50 L 486.50 779.70 L 482.40 776.60 L 478.60 773.00 L 473.50 766.80 L 469.10 760.20 L 465.30 753.40 L 461.90 746.30 L 458.90 739.00 L 456.40 731.50 L 452.30 716.20 L 450.70 708.40 L 446.80 685.10 L 442.90 692.30 L 439.40 699.70 L 435.90 710.00 L 434.70 715.40 L 434.30 698.60 L 434.40 681.70 L 435.10 664.90 Z" fill="#feffff" fill-rule="nonzero" node-id="83" stroke="none" target-height="128.19995" target-width="223.70001" target-x="434.3" target-y="664.9"></path><path d="M 434.70 715.40 L 435.90 710.00 L 439.40 699.70 L 442.90 692.30 L 446.80 685.10 L 450.70 708.40 L 454.20 723.90 L 458.90 739.00 L 461.90 746.30 L 465.30 753.40 L 469.10 760.20 L 473.50 766.80 L 478.60 773.00 L 482.50 776.60 L 486.50 779.70 L 490.80 782.50 L 495.20 784.90 L 501.50 787.50 L 507.90 789.70 L 514.60 791.30 L 521.40 792.30 L 528.20 793.00 L 535.20 793.10 L 548.90 792.40 L 561.40 790.50 L 567.20 789.30 L 581.30 784.90 L 598.00 778.90 L 606.50 776.20 L 618.00 773.50 L 623.90 772.80 L 628.20 784.60 L 633.00 796.30 L 628.70 800.20 L 624.30 803.60 L 619.80 806.70 L 615.10 809.40 L 608.50 812.50 L 601.70 815.00 L 594.70 817.10 L 580.30 819.90 L 572.90 820.80 L 561.80 821.60 L 539.50 821.90 L 528.70 821.70 L 510.80 820.50 L 501.80 819.70 L 486.80 817.30 L 475.40 814.00 L 469.90 811.80 L 464.50 809.10 L 459.40 805.90 L 455.90 801.50 L 452.80 796.90 L 450.10 792.00 L 446.70 784.30 L 443.80 776.30 L 438.90 760.20 L 436.90 745.30 L 435.50 730.40 L 434.70 715.40 Z" fill="#e8e6e9" fill-rule="nonzero" node-id="85" stroke="none" target-height="136.80005" target-width="198.29999" target-x="434.7" target-y="685.1"></path><path d="M 652.20 714.80 L 664.00 713.00 L 675.70 711.70 L 687.60 710.70 L 723.10 708.70 L 746.80 706.70 L 738.50 711.70 L 735.60 712.90 L 732.50 713.60 L 652.20 719.00 L 652.20 714.80 Z" fill="#7b5e63" fill-rule="nonzero" node-id="87" stroke="none" target-height="12.299988" target-width="94.599976" target-x="652.2" target-y="706.7"></path><path d="M 425.90 879.30 L 435.60 877.90 L 440.70 877.70 L 448.30 877.70 L 471.90 879.00 L 479.70 879.20 L 487.40 878.90 L 487.90 886.60 L 473.00 885.70 L 428.20 883.70 L 425.90 879.30 Z" fill="#2f1724" fill-rule="nonzero" node-id="89" stroke="none" target-height="8.899963" target-width="62" target-x="425.9" target-y="877.7"></path><path d="M 739.30 867.50 L 747.20 862.40 L 761.80 850.40 L 760.50 854.50 L 758.70 858.10 L 756.40 861.30 L 753.70 864.20 L 750.70 866.70 L 747.30 868.90 L 741.90 871.80 L 736.10 874.10 L 724.50 877.40 L 711.70 879.50 L 707.50 879.90 L 703.20 879.90 L 699.00 879.40 L 693.60 877.80 L 691.00 876.50 L 723.60 872.10 L 728.90 871.00 L 734.10 869.50 L 739.30 867.50 Z" fill="#5f3f49" fill-rule="nonzero" node-id="91" stroke="none" target-height="29.5" target-width="70.79999" target-x="691" target-y="850.4"></path><path d="M 493.20 881.20 L 558.60 881.30 L 689.60 882.40 L 700.10 887.30 L 652.80 889.20 L 629.20 889.60 L 593.70 889.60 L 558.10 889.10 L 487.10 887.40 L 493.20 881.20 Z" fill="#280d1a" fill-rule="nonzero" node-id="93" stroke="none" target-height="8.399963" target-width="212.99997" target-x="487.1" target-y="881.2"></path></svg>